<?xml version="1.0" encoding="utf-8"?>
<!-- Generator: Adobe Illustrator 16.0.4, SVG Export Plug-In . SVG Version: 6.00 Build 0)  -->
<!DOCTYPE svg PUBLIC "-//W3C//DTD SVG 1.1//EN" "http://www.w3.org/Graphics/SVG/1.1/DTD/svg11.dtd">
<svg version="1.1" id="Layer_1" xmlns="http://www.w3.org/2000/svg" xmlns:xlink="http://www.w3.org/1999/xlink" x="0px" y="0px"
	 width="500px" height="500px" viewBox="0 0 500 500" enable-background="new 0 0 500 500" xml:space="preserve">
<rect display="none" fill="#FFFFFF" width="500" height="500"/>
<path fill="#FFFFFF" d="M120.287,152.142c26.781,0,41.981,7.964,45.6,23.891c0,8.472-11.22,20.162-33.658,35.072
	c-17.372,8.811-30.4,13.216-39.086,13.216c-23.886,0-44.513-7.963-61.885-23.89v-3.05c7.962-18.638,15.561-30.159,22.799-34.564
	C80.114,155.7,102.191,152.142,120.287,152.142z M92.058,302.091h22.799c21.714,0,36.915,6.1,45.6,18.299v1.524
	c-4.343,17.282-9.771,27.109-16.285,29.481c-15.2,10.166-28.229,15.249-39.086,15.249c-18.095-2.033-32.21-5.93-42.344-11.69
	c-8.686-7.794-13.029-13.216-13.029-16.266l10.857-22.365C60.571,309.546,71.067,304.802,92.058,302.091z M70.344,165.866
	l-3.258,1.017v2.541h3.258l2.171-1.524v-1.017L70.344,165.866z M70.344,183.148l-3.258,1.524v4.066c0,3.389,1.448,5.083,4.343,5.083
	h1.087v-9.149L70.344,183.148z M71.428,313.781v1.525h1.087c7.238,0,14.113-1.694,20.627-5.083v-1.525h-3.256
	C81.925,308.698,75.771,310.393,71.428,313.781z M111.601,337.672l-21.714-1.017l-2.172,2.033c2.896,3.389,7.238,5.083,13.029,5.083
	h8.686c18.096,0,27.142-2.542,27.142-7.625v-1.524v-3.559h-4.343C124.99,335.469,118.115,337.672,111.601,337.672z M94.229,179.082
	v2.033c0,0.678,5.066,1.355,15.2,2.033c3.619,2.711,8.323,4.066,14.113,4.066v1.524c0,1.017-6.151,2.372-18.456,4.066L104,194.839
	c3.619,3.05,6.514,4.744,8.686,5.083h2.171c10.857-1.355,16.287-4.574,16.287-9.657v-0.509l-9.772-11.69l3.258-1.017l7.599,0.508
	l4.343-1.524v-0.509c0-4.066-7.599-6.1-22.799-6.1C102.915,169.424,96.401,172.644,94.229,179.082z M101.828,320.39
	c-5.066,2.372-7.599,4.066-7.599,5.083v2.033l3.256,1.017h11.944l2.172-1.017v-2.033
	C111.601,322.423,108.343,320.729,101.828,320.39z M117.028,157.225l-20.627,2.033v2.033l6.514,0.509h17.372
	c5.791,0,9.41-0.509,10.857-1.525C131.144,158.58,126.438,157.563,117.028,157.225z M121.371,316.831l-3.256,1.525v0.508
	c0,4.066,2.171,6.1,6.514,6.1c2.896-1.355,4.343-2.88,4.343-4.574c-0.724-2.372-2.171-3.559-4.343-3.559H121.371z M226.883,57.608
	l9.149,0.509c48.119,0,78.278,2.88,90.478,8.641c26.432,3.728,50.491,8.472,72.179,14.232c4.744,2.711,14.232,5.761,28.465,9.149
	c4.405,1.694,8.302,5.761,11.69,12.199c12.199,10.166,18.299,24.398,18.299,42.697l-9.657,43.714
	c-3.728,9.488-13.555,26.262-29.481,50.321c0,7.116-24.907,18.638-74.721,34.564c-2.033,2.711-10.844,4.744-26.432,6.1
	c-5.422,1.694-22.873,4.066-52.354,7.116v59.472l-1.017,49.305c18.299,0,36.089,3.728,53.371,11.183v1.525h0.509l-0.509,0.508v5.592
	c0,1.017,0.509,2.372,1.525,4.066l-2.542,5.083v5.083c0,3.728-3.05,5.591-9.149,5.591h-21.349v1.017
	c0,1.694,3.897,2.881,11.691,3.559v2.541l-6.1,1.017c-14.91-4.066-38.123-6.1-69.638-6.1c-2.711-3.728-4.405-5.591-5.083-5.591
	l-13.724,3.558c0,1.355,1.863,2.372,5.591,3.05v0.509c0,1.017-1.863,1.863-5.591,2.541c-3.389,0-5.083-10.844-5.083-32.531
	l-2.033-9.149c0-3.389,1.694-5.083,5.083-5.083l17.79,2.033h3.05c3.728,0,5.592-24.567,5.592-73.703l1.017-24.398
	c-2.033,0-3.05-3.22-3.05-9.658l-1.017-15.249v-22.873c0-5.083-0.339-10.336-1.017-15.758l1.017-3.558l-2.033-2.033v-2.033
	l3.05-3.05v-4.066l-2.033-2.542c1.694-23.043,2.541-40.494,2.541-52.354v-1.017c-1.694-2.372-2.541-6.607-2.541-12.707v-6.608
	l3.05-29.989v-0.509c-7.455-0.678-16.604-1.017-27.448-1.017c-4.066,0-6.777-5.591-8.133-16.773v-0.509
	c0-2.033,1.355-6.1,4.066-12.199l-1.017-7.116c0-3.389,2.711-5.252,8.133-5.591h1.524v-0.509l-2.541-5.083v-1.017
	C200.79,60.658,209.601,58.625,226.883,57.608z M214.175,405.286l-1.017,1.017c0.339,1.355,1.525,2.033,3.559,2.033
	c2.372-0.339,3.558-1.017,3.558-2.033v-1.017H214.175z M225.357,91.156v1.017l3.05,0.509h1.525c4.066-0.678,6.1-1.525,6.1-2.542
	l-1.017-1.524h-4.066C227.899,88.615,226.035,89.462,225.357,91.156z M244.165,64.725l-15.758,1.017v1.017
	c0,1.017,10.675,2.033,32.023,3.05l14.74-1.017c1.694-0.678,2.542-1.186,2.542-1.524v-1.525l-10.675-1.017H244.165z
	 M229.933,101.322l-1.525,2.033c0,0.339,1.525,0.848,4.575,1.525c2.372-0.339,3.558-0.848,3.558-1.525l-1.017-2.033H229.933z
	 M239.082,95.731l-1.525,1.524v0.509c2.033,3.05,5.083,4.574,9.149,4.574h4.066l2.542-3.05v-1.017c0-1.017-2.881-1.863-8.642-2.541
	H239.082z M244.165,353.439c0,7.455,0.508,11.183,1.524,11.183h1.017v-4.575v-17.282l-1.017-1.017
	C244.673,341.748,244.165,345.646,244.165,353.439z M246.706,373.263l-1.017-1.017c-1.017,2.033-1.524,4.066-1.524,6.1v1.525h1.524
	l1.017-1.017V373.263z M248.739,108.438h-1.017v4.066h1.017l0.509-1.524v-1.017L248.739,108.438z M248.739,200.44l-1.017,1.525
	v1.524h1.017l1.525-1.524v-1.525H248.739z M250.265,89.632h-1.525v0.508h1.525V89.632z M260.431,93.189h-2.542v1.017
	c0,3.389,2.542,5.083,7.625,5.083l13.724-1.524v-0.509C279.237,94.884,272.969,93.528,260.431,93.189z M259.414,108.947v3.558v1.525
	v2.033l-1.017,25.415c0,18.638,2.88,46.255,8.641,82.853l1.525,24.906c10.166,0,28.126-3.05,53.88-9.149
	c10.505,0,24.229-5.93,41.172-17.79c12.199-6.1,22.704-13.555,31.515-22.365c9.488-13.894,14.232-26.771,14.232-38.631
	c1.017,0,1.525-2.541,1.525-7.624v-3.559c0-4.066-11.353-12.877-34.057-26.432c-31.854-9.827-52.693-16.604-62.521-20.332
	l-10.675-1.017C277.543,102.339,262.803,104.542,259.414,108.947z M268.055,417.485h-6.1v1.017l7.625,1.017h6.607v-1.017
	L268.055,417.485z M274.154,422.568h-4.066v1.524h2.033l2.033-0.508V422.568z M272.121,266.012l-1.524,1.524
	c0,1.355,2.202,2.033,6.607,2.033c3.389-0.339,5.083-1.017,5.083-2.033l-1.524-1.524H272.121z M282.796,430.701h-2.033v1.524h2.033
	V430.701z M285.337,67.267l1.525,1.017h9.149l2.033-1.017c0-1.355-2.542-2.203-7.625-2.542
	C287.031,65.063,285.337,65.911,285.337,67.267z M292.453,423.585l-3.558,0.508v1.017l1.017,1.017h10.674v-1.017L292.453,423.585z
	 M299.569,268.553v1.017h2.542l11.183-3.558c11.86-0.339,18.129-1.355,18.807-3.05v-0.509h-5.083
	C313.802,262.453,304.652,264.486,299.569,268.553z M331.084,248.221v1.525h1.525c9.827-1.694,14.74-3.22,14.74-4.575v-1.017h-3.558
	C336.337,244.493,332.101,245.849,331.084,248.221z M340.233,260.929l-1.017,1.524l4.066,1.525h1.017l1.017-1.525l-1.017-1.524
	H340.233z M359.549,87.599l-0.508,0.508v0.509c2.033,1.017,4.235,1.524,6.607,1.524h0.509v-0.508
	C366.157,88.276,363.954,87.599,359.549,87.599z M361.074,77.433l-1.525,1.017h2.542L361.074,77.433z M363.615,254.32l-2.541,2.542
	h1.017c2.372,0,3.728-0.678,4.066-2.033v-0.509H363.615z M363.107,99.289h-1.017v1.525c0,1.694,1.186,2.541,3.558,2.541h0.509v-3.05
	L363.107,99.289z M364.632,231.955l1.017,1.017c1.355-0.339,2.542-1.694,3.559-4.066v-1.524h-1.525
	C365.648,228.397,364.632,229.922,364.632,231.955z M381.406,251.271v0.509h2.541c4.405,0,9.827-1.864,16.266-5.592v-2.033h-2.541
	C386.828,247.204,381.406,249.576,381.406,251.271z M382.423,94.715l-0.509,0.508v0.509c5.422,4.405,9.319,6.607,11.691,6.607
	v-2.033C393.605,97.934,389.878,96.07,382.423,94.715z M395.13,115.047h-0.508v1.017c2.711,3.728,5.93,5.591,9.657,5.591v-3.05
	C400.552,116.232,397.502,115.047,395.13,115.047z M404.279,131.312h-3.05v1.524c0.339,1.355,2.033,2.033,5.083,2.033h2.542
	l0.508-0.508h1.017C410.379,132.329,408.346,131.312,404.279,131.312z M402.755,209.59l0.508,1.017
	c5.083-4.066,7.625-7.624,7.625-10.674h-2.033C404.788,203.999,402.755,207.218,402.755,209.59z M408.346,231.447l-1.017,1.524
	v0.509l1.017,1.524h0.509l2.033-2.033l-1.525-1.524H408.346z M419.021,141.479v2.033l3.05,2.033l1.017-1.017
	C422.07,142.495,420.715,141.479,419.021,141.479z M422.07,115.047l-1.525,1.017v1.017c1.017,1.694,2.203,2.541,3.559,2.541
	l1.017-1.017v-0.508l-2.542-3.05H422.07z M437.827,158.252l-1.524,1.017v1.017l1.524,1.525h1.017v-2.542L437.827,158.252z
	 M450.026,144.528l-1.017,1.017c0.339,2.372,1.187,3.558,2.542,3.558h1.017l1.017-3.558l-2.033-1.017H450.026z"/>
</svg>
