<svg xmlns="http://www.w3.org/2000/svg" width="500" height="500" viewBox="0 0 500 500"><path fill="#FFF" d="M0 0h500v500H0z"/><path d="M120.29 152.14c26.78 0 41.98 7.97 45.6 23.9 0 8.46-11.22 20.15-33.66 35.06-17.37 8.82-30.4 13.22-39.09 13.22-23.88 0-44.51-7.96-61.88-23.89v-3.05c7.96-18.64 15.56-30.16 22.8-34.56 26.05-7.12 48.13-10.68 66.23-10.68zM92.06 302.1h22.8c21.71 0 36.91 6.1 45.6 18.3v1.52c-4.35 17.29-9.77 27.11-16.29 29.48-15.2 10.17-28.23 15.25-39.08 15.25-18.1-2.03-32.21-5.93-42.35-11.69-8.68-7.79-13.03-13.21-13.03-16.26l10.86-22.37c0-6.77 10.5-11.52 31.49-14.23zM70.34 165.87l-3.25 1.01v2.54h3.25l2.17-1.52v-1.02l-2.17-1.01zm0 17.28l-3.25 1.52v4.07c0 3.39 1.44 5.08 4.34 5.08h1.09v-9.15l-2.18-1.52zm1.09 130.63v1.53h1.08c7.24 0 14.12-1.7 20.63-5.09v-1.52H89.9c-7.97 0-14.12 1.7-18.46 5.08zm40.17 23.9l-21.71-1.02-2.18 2.03c2.9 3.39 7.24 5.08 13.03 5.08h8.69c18.1 0 27.14-2.54 27.14-7.62v-5.09h-4.34c-7.24 4.4-14.11 6.61-20.63 6.61zm-17.37-158.6v2.03c0 .68 5.06 1.36 15.2 2.04 3.62 2.7 8.32 4.06 14.11 4.06v1.53c0 1.01-6.15 2.37-18.45 4.06l-1.09 2.04c3.62 3.05 6.51 4.74 8.69 5.08h2.17c10.85-1.35 16.28-4.57 16.28-9.65v-.51l-9.77-11.7 3.26-1.01 7.6.5 4.34-1.52v-.5c0-4.07-7.6-6.1-22.8-6.1-10.85 0-17.37 3.21-19.54 9.65zm7.6 141.31c-5.07 2.37-7.6 4.07-7.6 5.08v2.04l3.25 1.01h11.95l2.17-1.01v-2.04c0-3.05-3.26-4.74-9.77-5.08zm15.2-163.16l-20.63 2.03v2.03l6.52.51h17.37c5.79 0 9.4-.5 10.85-1.53 0-1.69-4.7-2.7-14.11-3.05zm4.34 159.6l-3.26 1.53v.5c0 4.07 2.18 6.1 6.52 6.1 2.9-1.35 4.34-2.88 4.34-4.57-.72-2.37-2.17-3.56-4.34-3.56h-3.26zM226.88 57.61l9.15.5c48.12 0 78.28 2.89 90.48 8.65 26.43 3.73 50.5 8.47 72.18 14.23 4.74 2.71 14.23 5.76 28.46 9.15 4.4 1.7 8.3 5.76 11.7 12.2 12.2 10.16 18.3 24.4 18.3 42.7l-9.66 43.7c-3.73 9.5-13.56 26.27-29.49 50.33 0 7.12-24.9 18.64-74.72 34.56-2.03 2.72-10.84 4.75-26.43 6.1-5.42 1.7-22.87 4.07-52.35 7.12v59.47l-1.02 49.3c18.3 0 36.09 3.74 53.37 11.19v1.52h.51l-.5.51v5.6c0 1.01.5 2.37 1.52 4.06l-2.55 5.08v5.09c0 3.72-3.05 5.59-9.14 5.59h-21.35v1.01c0 1.7 3.9 2.89 11.69 3.56v2.55l-6.1 1.01c-14.91-4.06-38.13-6.1-69.64-6.1-2.71-3.73-4.4-5.59-5.08-5.59l-13.73 3.56c0 1.35 1.87 2.37 5.6 3.05v.5c0 1.02-1.87 1.87-5.6 2.55-3.39 0-5.08-10.85-5.08-32.53l-2.03-9.15c0-3.39 1.7-5.08 5.08-5.08l17.79 2.03h3.05c3.73 0 5.6-24.57 5.6-73.7l1-24.4c-2.02 0-3.04-3.22-3.04-9.66l-1.02-15.25v-22.87c0-5.09-.34-10.34-1.02-15.76l1.02-3.56-2.03-2.03v-2.03l3.05-3.05v-4.07l-2.03-2.54c1.69-23.05 2.54-40.5 2.54-52.36v-1.01c-1.7-2.38-2.54-6.61-2.54-12.71v-6.6l3.05-30v-.5c-7.46-.68-16.6-1.02-27.45-1.02-4.07 0-6.78-5.6-8.14-16.78v-.5c0-2.04 1.36-6.1 4.07-12.2l-1.02-7.12c0-3.39 2.71-5.25 8.14-5.6h1.52v-.5l-2.54-5.08V63.7c.34-3.05 9.15-5.09 26.43-6.1zm-12.7 347.68l-1.02 1.01c.34 1.36 1.52 2.04 3.56 2.04 2.37-.34 3.56-1.02 3.56-2.04v-1.01h-6.1zm11.18-314.13v1.01l3.05.51h1.52c4.07-.68 6.1-1.52 6.1-2.54l-1.01-1.52h-4.07c-3.05 0-4.91.84-5.6 2.54zm18.8-26.44l-15.75 1.02v1.02c0 1.02 10.67 2.03 32.02 3.05l14.74-1.02c1.7-.68 2.54-1.18 2.54-1.52v-1.53l-10.67-1.01h-22.88zm-14.23 36.6l-1.52 2.04c0 .33 1.52.84 4.57 1.52 2.37-.34 3.56-.85 3.56-1.52l-1.02-2.04h-5.59zm9.15-5.59l-1.52 1.52v.51c2.03 3.05 5.08 4.58 9.15 4.58h4.06l2.54-3.05v-1.02c0-1.02-2.88-1.86-8.64-2.54h-5.59zm5.08 257.7c0 7.46.51 11.2 1.53 11.2h1.02v-21.86l-1.02-1.02c-1.02 0-1.53 3.9-1.53 11.69zm2.55 19.83l-1.02-1.01a13.53 13.53 0 0 0-1.53 6.1v1.52h1.53l1.02-1.02v-5.59zm2.03-264.82h-1.02v4.06h1.02l.5-1.52v-1.02l-.5-1.52zm0 92l-1.02 1.52v1.53h1.02l1.52-1.53v-1.52h-1.52zm1.52-110.8h-1.52v.5h1.52v-.5zm10.17 3.55h-2.54v1.02c0 3.38 2.54 5.08 7.62 5.08l13.73-1.53v-.5c0-2.38-6.27-3.73-18.8-4.07zm-1.02 15.76V116.06l-1.01 25.42c0 18.64 2.88 46.25 8.64 82.85l1.52 24.9c10.17 0 28.13-3.04 53.88-9.14 10.5 0 24.23-5.93 41.17-17.8 12.2-6.1 22.7-13.55 31.52-22.36 9.49-13.9 14.23-26.77 14.23-38.63 1.02 0 1.53-2.54 1.53-7.62v-3.56c0-4.07-11.36-12.88-34.06-26.43-31.85-9.83-52.7-16.6-62.52-20.33l-10.68-1.02c-26.09 0-40.83 2.2-44.22 6.6zm8.64 308.54h-6.1v1.01l7.63 1.02h6.6v-1.02l-8.13-1.01zm6.1 5.08h-4.06v1.52h2.03l2.03-.5v-1.02zM272.12 266l-1.52 1.53c0 1.35 2.2 2.03 6.6 2.03 3.4-.34 5.09-1.02 5.09-2.03l-1.53-1.53h-8.64zm10.68 164.7h-2.04v1.52h2.04v-1.53zm2.54-363.44l1.52 1.01h9.15l2.03-1.01c0-1.36-2.54-2.2-7.62-2.54-3.39.33-5.08 1.18-5.08 2.54zm7.11 356.31l-3.56.51v1.02l1.02 1.02h10.68v-1.02l-8.14-1.53zm7.12-155.03v1.02h2.54l11.18-3.56c11.86-.34 18.13-1.35 18.81-3.05v-.5h-5.08c-13.22 0-22.37 2.03-27.45 6.1zm31.51-20.33v1.53h1.53c9.83-1.7 14.74-3.22 14.74-4.58v-1.02h-3.56c-7.45.34-11.69 1.7-12.7 4.07zm9.15 12.7l-1.01 1.53 4.06 1.53h1.02l1.02-1.53-1.02-1.52h-4.07zM359.55 87.6l-.5.5v.52a14.56 14.56 0 0 0 6.6 1.52h.5v-.5c0-1.36-2.2-2.04-6.6-2.04zm1.52-10.17l-1.52 1.02h2.54l-1.02-1.02zm2.55 176.89l-2.55 2.54h1.02c2.37 0 3.73-.68 4.07-2.03v-.51h-2.55zm-.51-155.03h-1.02v1.52c0 1.7 1.19 2.54 3.56 2.54h.5v-3.05l-3.04-1.01zm1.52 132.67l1.02 1.01c1.35-.34 2.54-1.7 3.56-4.06v-1.53h-1.53c-2.03 1.02-3.05 2.54-3.05 4.58zm16.78 19.31v.51h2.54c4.4 0 9.82-1.86 16.26-5.6v-2.03h-2.54c-10.84 3.05-16.26 5.43-16.26 7.12zm1.01-156.56l-.5.51v.51c5.42 4.4 9.31 6.6 11.68 6.6v-2.02c0-2.38-3.72-4.24-11.18-5.6zm12.71 20.34h-.5v1.01c2.7 3.73 5.92 5.6 9.65 5.6v-3.06c-3.73-2.37-6.78-3.55-9.15-3.55zm9.15 16.26h-3.05v1.53c.34 1.35 2.03 2.03 5.08 2.03h2.54l.51-.5h1.02c0-2.04-2.03-3.06-6.1-3.06zm-1.52 78.28l.5 1.02c5.09-4.07 7.63-7.63 7.63-10.68h-2.04c-4.06 4.07-6.1 7.29-6.1 9.66zm5.59 21.86l-1.02 1.52v.51l1.02 1.52h.5l2.04-2.03-1.53-1.52h-1.01zm10.67-89.97v2.03l3.05 2.04 1.02-1.02c-1.02-2.03-2.38-3.05-4.07-3.05zm3.05-26.43l-1.52 1.01v1.02c1.01 1.7 2.2 2.54 3.55 2.54l1.02-1.02v-.5l-2.54-3.05h-.51zm15.76 43.2l-1.53 1.02v1.02l1.53 1.52h1.01v-2.54l-1.01-1.02zm12.2-13.72l-1.02 1.01c.34 2.38 1.19 3.56 2.54 3.56h1.02l1.01-3.56-2.03-1.01h-1.52z"/></svg>