<?xml version="1.0" standalone="no"?>
<!DOCTYPE svg PUBLIC "-//W3C//DTD SVG 20010904//EN"
 "http://www.w3.org/TR/2001/REC-SVG-20010904/DTD/svg10.dtd">
<svg version="1.0" xmlns="http://www.w3.org/2000/svg"
 width="700.000000pt" height="700.000000pt" viewBox="0 0 700.000000 700.000000"
 preserveAspectRatio="xMidYMid meet">
<metadata>
Created by potrace 1.11, written by Peter Selinger 2001-2013
</metadata>
<g transform="translate(0.000000,700.000000) scale(0.100000,-0.100000)"
fill="#000000" stroke="none">
<path d="M2989 6175 c-105 -15 -166 -36 -176 -60 -3 -9 2 -33 11 -52 19 -41
11 -53 -35 -53 -15 0 -39 -10 -54 -22 -27 -21 -27 -24 -21 -89 5 -55 2 -76
-14 -115 -34 -78 -39 -117 -24 -187 18 -89 42 -145 68 -160 13 -7 94 -14 214
-18 105 -3 195 -9 198 -12 4 -3 -3 -98 -15 -209 -25 -239 -27 -353 -6 -431 20
-76 19 -262 0 -563 -14 -211 -14 -237 0 -256 21 -31 19 -71 -5 -93 -20 -18
-27 -59 -12 -69 4 -2 9 -127 10 -278 4 -429 23 -668 54 -668 7 0 8 -45 4 -137
-4 -76 -11 -325 -16 -553 -10 -399 -20 -555 -40 -630 -19 -68 -11 -66 -185
-46 -144 16 -158 16 -181 2 -27 -18 -32 -63 -14 -125 5 -19 14 -117 20 -217
14 -267 27 -306 97 -288 49 12 52 30 8 44 -20 7 -34 17 -32 23 4 14 177 58
193 49 6 -4 24 -22 39 -40 l27 -32 136 0 c253 0 531 -24 724 -62 123 -24 198
-19 198 11 0 15 -11 20 -56 25 -57 7 -93 20 -106 40 -5 8 47 12 182 16 182 5
189 6 214 29 21 20 26 34 26 73 0 29 8 65 20 87 10 21 16 42 12 46 -4 3 -9 39
-12 78 l-5 71 -96 37 c-168 63 -352 102 -545 115 l-101 7 5 756 c2 416 7 759
11 762 3 3 116 18 251 33 135 15 297 37 360 48 63 10 165 26 225 34 120 16
207 37 243 60 12 8 104 42 204 75 499 166 805 308 848 395 9 16 66 109 126
205 271 424 284 456 369 843 61 282 67 316 61 383 -17 180 -80 327 -198 460
-40 45 -88 102 -106 127 -47 66 -89 88 -245 130 -76 21 -169 51 -207 67 -115
48 -485 131 -850 189 -107 17 -222 39 -255 50 -209 68 -495 95 -1115 104 -250
4 -359 1 -431 -9z m897 -98 c4 -4 1 -14 -7 -23 -27 -26 -206 -34 -428 -19
-201 14 -251 21 -251 36 0 4 19 10 43 12 74 7 635 2 643 -6z m278 -7 c8 -8 7
-13 -4 -20 -17 -11 -120 -13 -144 -4 -21 8 -20 31 2 38 28 8 133 -1 146 -14z
m957 -317 c13 -15 10 -16 -30 -10 -60 8 -78 27 -24 27 26 0 46 -6 54 -17z
m-1826 -13 c0 -19 -77 -44 -110 -36 -31 8 -32 34 -2 46 35 15 112 8 112 -10z
m479 -55 c71 -6 136 -27 136 -44 0 -11 -109 -25 -198 -26 -55 0 -66 3 -83 24
-10 13 -19 32 -19 42 0 17 6 19 48 15 26 -3 78 -8 116 -11z m1650 -29 c55 -17
86 -41 86 -68 0 -30 -30 -20 -123 42 -61 41 -46 51 37 26z m-1943 -6 c62 -12
73 -24 52 -57 -37 -55 -222 -7 -199 52 6 18 67 20 147 5z m1630 -50 c20 -11
25 -35 9 -45 -16 -10 -50 14 -50 35 0 22 12 25 41 10z m-1804 -35 c8 -22 -2
-29 -40 -29 -46 0 -68 10 -61 29 8 21 92 21 101 0z m1323 -90 c140 -46 343
-111 450 -145 165 -53 210 -71 293 -122 146 -90 297 -200 340 -247 l38 -43 -4
-81 c-12 -226 -68 -403 -182 -582 -58 -90 -199 -210 -349 -296 -42 -24 -134
-80 -204 -123 -70 -44 -164 -97 -209 -118 -80 -38 -214 -78 -258 -78 -12 0
-105 -18 -206 -40 -101 -21 -222 -46 -269 -54 -101 -17 -300 -40 -305 -34 -3
2 -9 78 -15 168 -6 91 -26 275 -45 410 -77 553 -90 734 -80 1104 l7 288 52 24
c28 12 81 28 117 34 95 16 346 29 469 23 98 -4 121 -10 360 -88z m-1140 -26
c0 -10 -4 -19 -10 -19 -5 0 -10 12 -10 26 0 14 4 23 10 19 6 -3 10 -15 10 -26z
m2118 -84 c38 -17 52 -30 52 -45 0 -30 -39 -26 -88 10 -40 29 -56 60 -29 60 6
0 36 -11 65 -25z m326 3 c21 -29 20 -38 -3 -38 -24 0 -45 25 -37 45 8 21 22
19 40 -7z m-208 -222 c15 -12 16 -17 7 -27 -18 -19 -107 0 -111 24 -3 14 4 17
40 17 24 0 53 -6 64 -14z m179 -146 c21 -23 12 -39 -13 -24 -19 12 -29 44 -14
44 5 0 17 -9 27 -20z m443 -35 c2 -1 0 -14 -4 -29 -7 -31 -29 -34 -44 -5 -17
30 -5 52 22 43 13 -3 24 -8 26 -9z m-208 -212 c0 -25 -1 -26 -16 -11 -9 9 -13
21 -10 27 13 20 26 11 26 -16z m-390 -563 c0 -34 -91 -142 -107 -127 -9 10 18
65 52 105 26 31 55 43 55 22z m-2250 -14 c0 -16 -18 -31 -27 -22 -8 8 5 36 17
36 5 0 10 -6 10 -14z m1670 -370 c0 -16 -38 -66 -51 -66 -18 0 -9 49 13 64 28
20 38 20 38 2z m576 -57 c3 -6 -1 -18 -10 -27 -14 -14 -18 -15 -25 -3 -5 8 -7
20 -4 28 6 16 29 17 39 2z m-886 -179 c0 -15 -30 -27 -106 -44 -38 -9 -79 -18
-91 -21 -18 -4 -23 -1 -23 14 0 22 27 40 75 52 45 11 145 10 145 -1z m740 -6
c0 -24 -124 -76 -199 -82 -97 -8 -63 24 79 74 79 27 120 30 120 8z m-479 -138
c-6 -8 -23 -16 -37 -19 -24 -4 -24 -3 -8 14 21 23 63 27 45 5z m-296 -86 c4
-6 4 -17 1 -25 -4 -11 -12 -11 -40 -3 -22 7 -32 16 -29 24 6 16 59 19 68 4z
m-175 -19 c0 -17 -64 -32 -160 -37 -60 -4 -123 -15 -172 -31 -43 -13 -90 -23
-105 -21 l-28 3 38 22 c56 33 139 55 246 63 143 11 181 11 181 1z m-709 -57
c19 -23 -4 -34 -71 -34 -67 0 -90 11 -71 34 10 11 31 16 71 16 40 0 61 -5 71
-16z m-491 -1209 c0 -85 -4 -155 -9 -155 -15 0 -21 42 -21 155 0 113 6 155 21
155 5 0 9 -70 9 -155z m-2 -322 c-3 -51 -28 -75 -28 -26 0 39 10 73 22 73 5 0
8 -21 6 -47z m-368 -418 c0 -19 -35 -33 -67 -27 -22 4 -30 21 -16 35 3 4 24 7
45 7 27 0 38 -4 38 -15z m767 -175 c21 -6 11 -8 -43 -9 -82 -1 -134 7 -134 21
0 11 130 2 177 -12z m-17 -70 c-20 -13 -50 -13 -50 0 0 6 15 10 33 10 24 0 28
-3 17 -10z m323 -11 c31 -7 54 -16 51 -20 -9 -15 -140 -11 -153 5 -22 26 17
32 102 15z m-193 -99 c0 -5 -7 -10 -15 -10 -8 0 -15 5 -15 10 0 6 7 10 15 10
8 0 15 -4 15 -10z"/>
<path d="M1545 4864 c-206 -17 -398 -49 -649 -109 -159 -39 -181 -52 -264
-161 -63 -83 -192 -335 -192 -375 0 -24 13 -39 75 -89 178 -141 361 -219 595
-255 195 -30 326 -12 534 75 161 67 224 103 351 198 185 139 283 242 316 335
34 96 -64 243 -206 311 -130 61 -337 87 -560 70z m250 -82 c32 -9 43 -27 21
-35 -29 -11 -275 -19 -369 -12 -71 5 -97 11 -97 20 0 9 18 16 53 20 28 3 86
10 127 15 78 9 216 5 265 -8z m-790 -138 c-29 -21 -65 -18 -65 5 0 23 35 32
64 18 19 -9 19 -10 1 -23z m724 -24 c110 -12 139 -19 164 -45 40 -40 6 -58
-103 -56 -36 1 -70 -2 -77 -7 -8 -5 10 -33 56 -89 74 -89 80 -112 37 -152 -28
-26 -114 -57 -184 -67 -44 -6 -57 -3 -95 19 -54 32 -74 54 -60 68 5 5 50 16
99 25 125 21 164 33 164 48 0 9 -19 16 -56 20 -30 3 -76 17 -102 30 -31 15
-74 26 -127 30 -44 4 -90 10 -102 13 -59 14 10 119 95 147 81 26 152 30 291
16z m-721 -202 c7 -7 12 -38 12 -70 0 -55 -1 -58 -24 -58 -38 0 -56 25 -56 80
0 29 5 50 13 53 22 9 43 7 55 -5z"/>
<path d="M1230 2764 c-162 -30 -250 -57 -312 -96 -38 -24 -51 -40 -67 -83 -11
-30 -50 -113 -86 -184 -36 -72 -65 -139 -65 -149 0 -48 135 -198 215 -239 136
-70 431 -143 580 -143 69 0 163 24 259 66 122 53 302 162 342 207 46 50 85
135 125 266 l31 103 -29 31 c-94 101 -197 161 -338 198 -70 19 -114 22 -355
24 -151 2 -286 1 -300 -1z m70 -98 c0 -15 -78 -49 -153 -66 -57 -13 -147 -13
-147 1 0 15 102 59 158 69 82 13 142 12 142 -4z m488 -118 c20 -20 13 -55 -14
-77 -31 -24 -43 -26 -79 -9 -33 15 -49 67 -27 86 20 15 104 16 120 0z m-254
-62 c30 -19 36 -70 10 -80 -20 -8 -172 -8 -201 0 -44 12 -25 51 42 88 37 20
113 16 149 -8z m376 -170 c0 -37 -5 -48 -29 -69 -51 -42 -116 -52 -351 -52
l-215 0 -44 28 c-42 28 -43 29 -25 47 17 16 32 17 169 9 91 -5 174 -4 213 2
65 10 150 39 186 64 11 8 37 15 58 15 l38 0 0 -44z"/>
</g>
</svg>
