<?xml version="1.0" standalone="no"?>
<!DOCTYPE svg PUBLIC "-//W3C//DTD SVG 20010904//EN"
 "http://www.w3.org/TR/2001/REC-SVG-20010904/DTD/svg10.dtd">
<svg version="1.0" xmlns="http://www.w3.org/2000/svg"
 width="700.000000pt" height="700.000000pt" viewBox="0 0 700.000000 700.000000"
 preserveAspectRatio="xMidYMid meet">
<metadata>
Created by potrace 1.11, written by Peter Selinger 2001-2013
</metadata>
<g transform="translate(0.000000,700.000000) scale(0.100000,-0.100000)"
fill="#000000" stroke="none">
<path d="M3335 6915 c-71 -41 -137 -79 -145 -85 -8 -5 -67 -38 -130 -74 -63
-36 -126 -73 -140 -81 -39 -23 -319 -184 -375 -215 -27 -15 -106 -61 -175
-100 -69 -40 -150 -86 -180 -103 -30 -16 -62 -36 -71 -43 -8 -8 -19 -14 -22
-14 -4 0 -78 -41 -164 -91 -87 -50 -183 -105 -213 -121 -30 -17 -59 -34 -65
-38 -5 -4 -199 -116 -430 -248 -231 -132 -434 -248 -452 -258 -18 -11 -87 -50
-154 -89 -67 -38 -129 -80 -138 -94 -15 -23 -16 -172 -18 -1731 -2 -938 0
-1720 3 -1739 5 -31 56 -91 77 -91 5 0 73 -38 151 -84 121 -71 750 -436 1181
-684 72 -41 283 -164 471 -273 187 -108 433 -250 545 -315 112 -64 248 -144
302 -176 55 -32 100 -58 102 -58 2 0 39 -21 82 -47 116 -70 133 -68 306 35 76
45 140 82 143 82 2 0 25 13 51 29 86 51 281 164 658 381 204 117 382 221 397
231 15 11 29 19 31 19 3 0 67 36 143 81 77 44 157 91 179 104 22 12 94 54 160
92 66 39 140 81 165 95 25 14 155 90 290 168 135 79 261 152 280 163 195 110
318 184 332 200 10 11 20 34 23 51 3 17 4 799 3 1738 l-3 1706 -30 24 c-25 20
-183 118 -191 118 -1 0 -48 27 -103 60 -56 33 -103 60 -105 60 -2 0 -33 17
-67 38 -35 22 -154 91 -264 154 -110 64 -272 157 -360 208 -88 51 -173 101
-190 110 -16 10 -316 183 -665 385 -349 202 -648 375 -665 385 -16 9 -105 60
-196 113 -122 71 -175 97 -200 97 -24 0 -73 -23 -164 -75z m63 -1777 l-3
-1583 -455 -262 c-250 -145 -551 -318 -668 -385 -117 -68 -227 -131 -245 -142
-17 -10 -318 -183 -667 -384 -349 -200 -648 -374 -663 -385 -16 -10 -31 -17
-34 -14 -4 4 -7 2603 -3 3087 l0 85 68 37 c123 69 176 100 233 134 31 19 62
34 68 34 6 0 11 5 11 10 0 6 4 10 9 10 5 0 123 66 262 146 140 80 279 160 309
176 30 17 60 34 65 38 6 4 226 131 490 282 565 324 1078 618 1155 664 30 18
58 33 63 33 4 1 6 -711 5 -1581z m354 1498 c149 -87 390 -226 442 -256 17 -9
182 -104 366 -211 184 -107 342 -198 350 -202 8 -4 29 -16 45 -27 17 -10 41
-25 55 -33 71 -38 1316 -760 1323 -767 6 -5 11 -2277 7 -3088 l0 -74 -42 25
c-24 14 -59 34 -78 45 -19 10 -181 104 -360 207 -323 187 -695 401 -754 435
-17 9 -220 126 -451 260 -231 133 -436 251 -455 262 -19 10 -161 92 -315 181
l-280 162 -3 1583 c-1 870 0 1582 3 1582 2 0 68 -38 147 -84z m-110 -4530 c94
-48 152 -116 178 -211 62 -223 -127 -448 -352 -421 -199 25 -335 213 -293 406
21 99 111 202 208 239 79 30 185 24 259 -13z"/>
<path d="M1890 4717 c-91 -28 -193 -128 -221 -217 -61 -199 71 -408 274 -435
157 -21 319 82 363 231 52 180 -39 356 -216 419 -48 17 -148 18 -200 2z"/>
<path d="M4893 4709 c-66 -26 -147 -98 -178 -160 -60 -118 -43 -268 41 -368
79 -94 243 -146 344 -108 130 49 199 118 235 236 22 71 10 172 -28 244 -74
142 -265 214 -414 156z"/>
</g>
</svg>
